<svg xmlns="http://www.w3.org/2000/svg" xmlns:xlink="http://www.w3.org/1999/xlink" width="500" zoomAndPan="magnify" viewBox="0 0 375 374.999991" height="500" preserveAspectRatio="xMidYMid meet" version="1.2"><defs><clipPath id="6d71c7da10"><path d="M 46 9.445312 L 330 9.445312 L 330 365.695312 L 46 365.695312 Z M 46 9.445312 "/></clipPath></defs><g id="8f8a19cdc4"><g clip-rule="nonzero" clip-path="url(#6d71c7da10)"><path style=" stroke:none;fill-rule:nonzero;fill:#000000;fill-opacity:1;" d="M 281.871094 9.445312 L 93.265625 9.445312 C 67.269531 9.445312 46.117188 30.59375 46.117188 56.59375 L 46.117188 209.992188 C 46.117188 212.886719 48.460938 215.230469 51.355469 215.230469 C 54.25 215.230469 56.59375 212.886719 56.59375 209.992188 L 56.59375 56.59375 C 56.59375 36.375 73.046875 19.921875 93.265625 19.921875 L 281.871094 19.921875 C 302.089844 19.921875 318.542969 36.375 318.542969 56.59375 L 318.542969 287.109375 C 318.542969 307.332031 302.089844 323.78125 281.871094 323.78125 C 250.734375 323.78125 115.511719 323.78125 93.265625 323.78125 C 73.046875 323.78125 56.59375 307.332031 56.59375 287.109375 L 56.59375 251.902344 C 56.59375 249.007812 54.25 246.664062 51.355469 246.664062 C 48.460938 246.664062 46.117188 249.007812 46.117188 251.902344 L 46.117188 287.109375 C 46.117188 309.507812 61.820312 328.292969 82.789062 333.070312 L 82.789062 344.265625 C 82.789062 356.082031 92.402344 365.695312 104.21875 365.695312 C 112.386719 365.695312 119.730469 361.15625 123.382812 353.847656 L 133.179688 334.261719 L 241.960938 334.261719 L 251.753906 353.847656 C 255.40625 361.15625 262.75 365.695312 270.917969 365.695312 C 282.734375 365.695312 292.347656 356.082031 292.347656 344.265625 L 292.347656 333.070312 C 313.320312 328.292969 329.019531 309.507812 329.019531 287.109375 L 329.019531 56.59375 C 329.019531 30.59375 307.871094 9.445312 281.871094 9.445312 Z M 114.011719 349.164062 C 112.144531 352.898438 108.390625 355.214844 104.21875 355.214844 C 98.179688 355.214844 93.265625 350.304688 93.265625 344.265625 L 93.265625 334.261719 L 121.464844 334.261719 Z M 281.871094 344.265625 C 281.871094 350.304688 276.957031 355.214844 270.917969 355.214844 C 266.746094 355.214844 262.992188 352.898438 261.125 349.164062 L 253.675781 334.261719 L 281.871094 334.261719 Z M 281.871094 344.265625 "/></g><path style=" stroke:none;fill-rule:nonzero;fill:#000000;fill-opacity:1;" d="M 302.824219 58.339844 C 302.824219 45.824219 292.640625 35.640625 280.125 35.640625 L 95.015625 35.640625 C 82.496094 35.640625 72.3125 45.824219 72.3125 58.339844 L 72.3125 285.363281 C 72.3125 297.882812 82.496094 308.066406 95.015625 308.066406 L 280.125 308.066406 C 292.640625 308.066406 302.824219 297.882812 302.824219 285.363281 L 302.824219 118.34375 C 302.824219 115.449219 300.480469 113.105469 297.585938 113.105469 C 294.691406 113.105469 292.347656 115.449219 292.347656 118.34375 L 292.347656 140.417969 L 229.679688 140.417969 L 237.253906 137.664062 C 239.972656 136.675781 241.375 133.667969 240.386719 130.949219 L 217.113281 66.941406 C 214.152344 58.800781 205.117188 54.585938 196.972656 57.542969 L 182.199219 62.914062 C 180.316406 63.601562 178.621094 64.625 177.164062 65.914062 C 174.371094 63.378906 170.671875 61.832031 166.613281 61.832031 L 150.894531 61.832031 C 146.875 61.832031 143.199219 63.355469 140.417969 65.847656 C 137.636719 63.355469 133.960938 61.832031 129.941406 61.832031 L 114.222656 61.832031 C 105.558594 61.832031 98.507812 68.882812 98.507812 77.550781 L 98.507812 140.417969 L 82.789062 140.417969 L 82.789062 58.339844 C 82.789062 51.601562 88.273438 46.117188 95.015625 46.117188 L 280.125 46.117188 C 286.863281 46.117188 292.347656 51.601562 292.347656 58.339844 L 292.347656 76.433594 C 292.347656 79.328125 294.691406 81.671875 297.585938 81.671875 C 300.480469 81.671875 302.824219 79.328125 302.824219 76.433594 Z M 108.238281 297.585938 L 108.238281 234.71875 C 108.238281 231.832031 110.589844 229.480469 113.480469 229.480469 L 129.195312 229.480469 C 131.855469 229.480469 134.414062 231.5 134.433594 234.957031 L 134.433594 297.585938 Z M 144.914062 266.429688 L 156.242188 297.585938 L 144.914062 297.585938 Z M 166.714844 295.726562 L 145.230469 236.644531 C 144.242188 233.929688 145.636719 230.921875 148.363281 229.933594 L 163.132812 224.5625 C 165.859375 223.566406 168.859375 224.980469 169.847656 227.695312 L 191.332031 286.777344 Z M 266.152344 297.585938 L 239.957031 297.585938 L 239.957031 234.71875 C 239.957031 231.832031 242.308594 229.480469 245.199219 229.480469 L 260.914062 229.480469 C 263.804688 229.480469 266.152344 231.832031 266.152344 234.71875 Z M 292.347656 285.363281 C 292.347656 292.101562 286.863281 297.585938 280.125 297.585938 L 276.632812 297.585938 L 276.632812 234.71875 C 276.632812 226.054688 269.582031 219.003906 260.914062 219.003906 L 245.199219 219.003906 C 236.53125 219.003906 229.480469 226.054688 229.480469 234.71875 L 229.480469 297.585938 L 192.261719 297.585938 L 199.835938 294.832031 C 202.554688 293.84375 203.957031 290.839844 202.96875 288.117188 L 179.695312 224.113281 C 176.734375 215.96875 167.699219 211.753906 159.554688 214.714844 L 144.78125 220.082031 C 142.871094 220.78125 141.179688 221.808594 139.742188 223.078125 C 136.953125 220.546875 133.25 219.003906 129.195312 219.003906 L 113.476562 219.003906 C 104.8125 219.003906 97.761719 226.054688 97.761719 234.71875 L 97.761719 297.585938 L 95.015625 297.585938 C 88.273438 297.585938 82.789062 292.101562 82.789062 285.363281 L 82.789062 203.285156 L 292.347656 203.285156 Z M 185.78125 72.761719 L 200.550781 67.390625 C 203.277344 66.398438 206.277344 67.808594 207.265625 70.523438 L 228.75 129.605469 L 204.132812 138.558594 L 182.648438 79.476562 C 181.660156 76.757812 183.054688 73.753906 185.78125 72.761719 Z M 193.660156 140.417969 L 182.328125 140.417969 L 182.328125 109.261719 Z M 150.894531 72.3125 L 166.613281 72.3125 C 169.503906 72.3125 171.851562 74.660156 171.851562 77.550781 L 171.851562 140.417969 L 145.65625 140.417969 L 145.65625 77.550781 C 145.65625 74.660156 148.007812 72.3125 150.894531 72.3125 Z M 108.984375 77.550781 C 108.984375 74.660156 111.335938 72.3125 114.222656 72.3125 L 129.941406 72.3125 C 132.828125 72.3125 135.179688 74.660156 135.179688 77.550781 L 135.179688 140.417969 L 108.984375 140.417969 Z M 292.347656 150.894531 L 292.347656 192.808594 L 82.789062 192.808594 L 82.789062 150.894531 Z M 292.347656 150.894531 "/><path style=" stroke:none;fill-rule:nonzero;fill:#000000;fill-opacity:1;" d="M 302.824219 97.390625 C 302.824219 97.734375 302.792969 98.074219 302.726562 98.410156 C 302.660156 98.75 302.558594 99.074219 302.425781 99.394531 C 302.296875 99.710938 302.132812 100.011719 301.941406 100.300781 C 301.753906 100.585938 301.535156 100.851562 301.292969 101.09375 C 301.046875 101.335938 300.785156 101.554688 300.496094 101.746094 C 300.210938 101.9375 299.910156 102.097656 299.59375 102.230469 C 299.273438 102.359375 298.945312 102.460938 298.609375 102.527344 C 298.273438 102.59375 297.929688 102.628906 297.585938 102.628906 C 297.242188 102.628906 296.902344 102.59375 296.566406 102.527344 C 296.226562 102.460938 295.898438 102.359375 295.582031 102.230469 C 295.265625 102.097656 294.960938 101.9375 294.675781 101.746094 C 294.390625 101.554688 294.125 101.335938 293.882812 101.09375 C 293.640625 100.851562 293.421875 100.585938 293.230469 100.300781 C 293.039062 100.011719 292.878906 99.710938 292.746094 99.394531 C 292.617188 99.074219 292.515625 98.75 292.449219 98.410156 C 292.382812 98.074219 292.347656 97.734375 292.347656 97.390625 C 292.347656 97.042969 292.382812 96.703125 292.449219 96.367188 C 292.515625 96.027344 292.617188 95.703125 292.746094 95.382812 C 292.878906 95.066406 293.039062 94.765625 293.230469 94.476562 C 293.421875 94.191406 293.640625 93.925781 293.882812 93.683594 C 294.125 93.441406 294.390625 93.222656 294.675781 93.03125 C 294.960938 92.839844 295.265625 92.679688 295.582031 92.546875 C 295.898438 92.417969 296.226562 92.316406 296.566406 92.25 C 296.902344 92.183594 297.242188 92.148438 297.585938 92.148438 C 297.929688 92.148438 298.273438 92.183594 298.609375 92.25 C 298.945312 92.316406 299.273438 92.417969 299.59375 92.546875 C 299.910156 92.679688 300.210938 92.839844 300.496094 93.03125 C 300.785156 93.222656 301.046875 93.441406 301.292969 93.683594 C 301.535156 93.925781 301.753906 94.191406 301.941406 94.476562 C 302.132812 94.765625 302.296875 95.066406 302.425781 95.382812 C 302.558594 95.703125 302.660156 96.027344 302.726562 96.367188 C 302.792969 96.703125 302.824219 97.042969 302.824219 97.390625 Z M 302.824219 97.390625 "/><path style=" stroke:none;fill-rule:nonzero;fill:#000000;fill-opacity:1;" d="M 56.59375 230.949219 C 56.59375 231.292969 56.5625 231.632812 56.492188 231.96875 C 56.425781 232.308594 56.328125 232.632812 56.195312 232.953125 C 56.0625 233.269531 55.902344 233.570312 55.710938 233.859375 C 55.519531 234.144531 55.304688 234.410156 55.058594 234.652344 C 54.816406 234.894531 54.550781 235.113281 54.265625 235.304688 C 53.980469 235.496094 53.679688 235.65625 53.359375 235.789062 C 53.042969 235.917969 52.714844 236.019531 52.378906 236.085938 C 52.039062 236.152344 51.699219 236.1875 51.355469 236.1875 C 51.011719 236.1875 50.671875 236.152344 50.332031 236.085938 C 49.996094 236.019531 49.667969 235.917969 49.351562 235.789062 C 49.03125 235.65625 48.730469 235.496094 48.445312 235.304688 C 48.160156 235.113281 47.894531 234.894531 47.652344 234.652344 C 47.40625 234.410156 47.191406 234.144531 47 233.859375 C 46.808594 233.570312 46.648438 233.269531 46.515625 232.953125 C 46.382812 232.632812 46.285156 232.308594 46.21875 231.96875 C 46.148438 231.632812 46.117188 231.292969 46.117188 230.949219 C 46.117188 230.601562 46.148438 230.261719 46.21875 229.925781 C 46.285156 229.589844 46.382812 229.261719 46.515625 228.941406 C 46.648438 228.625 46.808594 228.324219 47 228.035156 C 47.191406 227.75 47.40625 227.484375 47.652344 227.242188 C 47.894531 227 48.160156 226.78125 48.445312 226.589844 C 48.730469 226.398438 49.03125 226.238281 49.351562 226.105469 C 49.667969 225.976562 49.996094 225.875 50.332031 225.808594 C 50.671875 225.742188 51.011719 225.707031 51.355469 225.707031 C 51.699219 225.707031 52.039062 225.742188 52.378906 225.808594 C 52.714844 225.875 53.042969 225.976562 53.359375 226.105469 C 53.679688 226.238281 53.980469 226.398438 54.265625 226.589844 C 54.550781 226.78125 54.816406 227 55.058594 227.242188 C 55.304688 227.484375 55.519531 227.75 55.710938 228.035156 C 55.902344 228.324219 56.0625 228.625 56.195312 228.941406 C 56.328125 229.261719 56.425781 229.589844 56.492188 229.925781 C 56.5625 230.261719 56.59375 230.601562 56.59375 230.949219 Z M 56.59375 230.949219 "/></g></svg>