<svg xmlns="http://www.w3.org/2000/svg" xmlns:xlink="http://www.w3.org/1999/xlink" width="500" zoomAndPan="magnify" viewBox="0 0 375 374.999991" height="500" preserveAspectRatio="xMidYMid meet" version="1.0"><defs><clipPath id="c72451b425"><path d="M 267 11.476562 L 362.914062 11.476562 L 362.914062 109 L 267 109 Z M 267 11.476562 " clip-rule="nonzero"/></clipPath><clipPath id="1070cbe471"><path d="M 12.019531 266 L 107.484375 266 L 107.484375 363.167969 L 12.019531 363.167969 Z M 12.019531 266 " clip-rule="nonzero"/></clipPath><clipPath id="c55813d5ca"><path d="M 265.753906 266 L 362.914062 266 L 362.914062 362 L 265.753906 362 Z M 265.753906 266 " clip-rule="nonzero"/></clipPath></defs><rect x="-37.5" width="450" fill="#ffffff" y="-37.499999" height="449.999989" fill-opacity="1"/><rect x="-37.5" width="450" fill="#ffffff" y="-37.499999" height="449.999989" fill-opacity="1"/><path fill="#000000" d="M 83.214844 50.246094 C 83.183594 50.199219 83.136719 48.886719 83.109375 47.335938 C 83.078125 45.789062 83.035156 44.082031 83.003906 43.550781 L 82.949219 42.585938 L 84.929688 42.625 C 87.015625 42.664062 87.324219 42.703125 88.375 43.0625 C 89.113281 43.316406 89.730469 43.660156 90.175781 44.066406 C 90.652344 44.503906 90.816406 44.902344 90.808594 45.609375 C 90.804688 46.046875 90.761719 46.210938 90.550781 46.660156 C 90.246094 47.304688 89.714844 47.902344 88.941406 48.476562 C 87.722656 49.378906 86.492188 49.84375 84.597656 50.117188 C 84.042969 50.199219 83.515625 50.28125 83.429688 50.300781 C 83.339844 50.320312 83.242188 50.296875 83.214844 50.246094 Z M 86.878906 57.199219 C 88.863281 58.367188 89.628906 59.03125 90.492188 60.3125 C 91.097656 61.207031 91.316406 61.6875 91.792969 63.136719 C 92.3125 64.707031 92.558594 65.199219 93.136719 65.777344 C 93.742188 66.382812 94.273438 66.636719 94.945312 66.636719 C 95.390625 66.636719 95.503906 66.605469 95.808594 66.421875 C 96.691406 65.875 97.148438 64.585938 96.992188 63.105469 C 96.777344 61.0625 95.851562 58.628906 94.703125 57.089844 C 93.78125 55.847656 92.363281 54.5625 91 53.71875 C 90.722656 53.550781 90.492188 53.390625 90.492188 53.371094 C 90.492188 53.347656 90.84375 53.097656 91.273438 52.816406 C 93.511719 51.347656 95.082031 49.035156 95.414062 46.730469 C 95.585938 45.546875 95.40625 44.085938 94.949219 42.960938 C 93.921875 40.417969 91.0625 38.640625 87.394531 38.269531 C 85.703125 38.097656 83.136719 38.238281 81.390625 38.597656 C 79.816406 38.921875 79.113281 39.585938 78.925781 40.929688 C 78.882812 41.210938 78.820312 41.585938 78.78125 41.757812 C 78.460938 43.183594 78.082031 49.621094 78.011719 54.78125 C 77.925781 61.320312 78.167969 64.753906 78.8125 66.117188 C 79.183594 66.90625 79.878906 67.496094 80.5625 67.605469 C 81.226562 67.710938 81.832031 67.519531 82.34375 67.042969 C 83.367188 66.082031 83.539062 64.820312 83.421875 59.15625 C 83.382812 57.226562 83.375 55.625 83.402344 55.59375 C 83.480469 55.503906 85.882812 56.613281 86.878906 57.199219 " fill-opacity="1" fill-rule="nonzero"/><path fill="#000000" d="M 12.722656 82.285156 C 12.84375 86.144531 13.003906 90.113281 13.121094 91.792969 C 13.160156 92.386719 13.226562 93.363281 13.265625 93.960938 C 13.304688 94.554688 13.371094 96.457031 13.40625 98.1875 C 13.5 102.453125 13.652344 103.839844 14.183594 105.269531 C 14.539062 106.230469 14.832031 106.75 15.28125 107.242188 C 15.734375 107.730469 16.109375 107.96875 16.664062 108.121094 C 17.683594 108.40625 18.777344 107.953125 19.453125 106.957031 C 20.160156 105.925781 20.636719 103.855469 20.53125 102.273438 C 20.511719 101.953125 20.449219 100.472656 20.386719 98.980469 C 20.261719 95.820312 20.171875 94.152344 20.023438 92.152344 C 19.945312 91.023438 19.921875 88.988281 19.921875 82.902344 C 19.917969 78.605469 19.882812 74.085938 19.847656 72.851562 C 19.808594 71.621094 19.742188 69.394531 19.699219 67.902344 C 19.65625 66.410156 19.574219 64.054688 19.515625 62.660156 C 19.457031 61.269531 19.390625 58.261719 19.363281 55.976562 C 19.300781 50.289062 19.457031 45.898438 19.917969 40.179688 C 20.039062 38.710938 20.167969 37.066406 20.210938 36.53125 C 20.253906 35.992188 20.347656 35.003906 20.425781 34.324219 C 20.5 33.648438 20.664062 32.03125 20.785156 30.730469 C 21.007812 28.375 21.171875 27.25 21.441406 26.175781 C 21.753906 24.9375 22.269531 23.792969 22.6875 23.390625 C 22.957031 23.128906 23.726562 22.738281 24.402344 22.519531 C 25.214844 22.253906 31.039062 21.386719 33.945312 21.097656 C 34.601562 21.035156 35.871094 20.902344 36.765625 20.808594 C 40.933594 20.367188 41.941406 20.300781 51.007812 19.894531 C 52.214844 19.835938 57.886719 19.800781 67.316406 19.789062 C 98.582031 19.738281 104.082031 19.699219 105.96875 19.507812 C 106.558594 19.445312 107.394531 19.257812 107.742188 19.109375 C 109.128906 18.511719 109.445312 16.703125 108.328125 15.742188 C 107.546875 15.074219 106.472656 14.769531 103.980469 14.519531 C 99.539062 14.078125 95.777344 13.882812 88.867188 13.726562 C 86.199219 13.667969 82.976562 13.585938 81.707031 13.546875 C 80.433594 13.507812 77.570312 13.445312 75.34375 13.402344 C 73.117188 13.363281 71.019531 13.308594 70.679688 13.289062 C 69.476562 13.207031 59.058594 13.253906 53.722656 13.359375 C 46.46875 13.507812 42.625 13.691406 34.449219 14.308594 C 30.980469 14.566406 25.75 15.191406 23.824219 15.578125 C 21.414062 16.058594 18.75 17.484375 17.429688 18.996094 C 15.941406 20.699219 14.894531 23.273438 14.246094 26.84375 C 13.507812 30.914062 12.609375 37.957031 12.289062 42.207031 C 12.027344 45.695312 11.9375 56.285156 12.113281 63.023438 C 12.246094 68.253906 12.425781 74.035156 12.542969 76.9375 C 12.585938 77.949219 12.664062 80.355469 12.722656 82.285156 " fill-opacity="1" fill-rule="nonzero"/><g clip-path="url(#c72451b425)"><path fill="#000000" d="M 269.378906 19.214844 C 269.796875 19.425781 270.695312 19.710938 271.445312 19.871094 C 272.128906 20.015625 273.804688 20.03125 276.074219 19.910156 C 276.871094 19.871094 278.398438 19.800781 279.472656 19.757812 C 280.542969 19.714844 281.976562 19.632812 282.652344 19.566406 C 283.65625 19.472656 285.667969 19.445312 293.535156 19.402344 C 302.863281 19.347656 304.917969 19.308594 311.289062 19.070312 C 321.707031 18.679688 327.816406 18.753906 335.261719 19.363281 C 336.429688 19.457031 337.863281 19.570312 338.441406 19.613281 C 339.019531 19.65625 340.414062 19.789062 341.550781 19.90625 C 342.683594 20.023438 344.484375 20.203125 345.550781 20.300781 C 347.675781 20.5 348.523438 20.625 349.589844 20.886719 C 350.953125 21.226562 352.101562 21.726562 352.523438 22.167969 C 352.785156 22.441406 353.183594 23.21875 353.398438 23.882812 C 353.773438 25.03125 354.515625 30.371094 355.105469 36.207031 C 355.5625 40.714844 355.660156 42.214844 356.023438 50.445312 C 356.082031 51.75 356.117188 57.171875 356.128906 66.851562 C 356.175781 97.679688 356.222656 103.707031 356.417969 105.488281 C 356.589844 107.050781 357.023438 107.894531 357.855469 108.28125 C 358.636719 108.644531 359.605469 108.4375 360.175781 107.773438 C 360.847656 106.996094 361.152344 105.925781 361.398438 103.429688 C 361.84375 98.945312 362.039062 95.1875 362.191406 88.25 C 362.25 85.546875 362.316406 82.976562 362.339844 82.539062 C 362.390625 81.488281 362.585938 72.359375 362.65625 67.757812 C 362.738281 62.289062 362.566406 50.285156 362.339844 45.457031 C 362.1875 42.21875 361.960938 38.574219 361.617188 33.925781 C 361.351562 30.355469 360.695312 24.976562 360.308594 23.164062 C 360.058594 22.003906 359.769531 21.1875 359.234375 20.132812 C 358.339844 18.378906 357.460938 17.265625 356.265625 16.375 C 355.613281 15.886719 353.820312 15.003906 352.757812 14.640625 C 351.117188 14.085938 349.644531 13.789062 345.199219 13.121094 C 339.265625 12.226562 335.042969 11.785156 331.175781 11.664062 C 324.808594 11.460938 322.65625 11.4375 317.542969 11.511719 C 314.699219 11.554688 311.316406 11.621094 310.023438 11.664062 C 308.730469 11.703125 306.109375 11.785156 304.199219 11.847656 C 302.292969 11.90625 299.933594 11.988281 298.960938 12.027344 C 297.984375 12.066406 295.59375 12.148438 293.644531 12.207031 C 289.738281 12.324219 285.773438 12.488281 284.101562 12.605469 C 283.503906 12.644531 282.527344 12.710938 281.929688 12.75 C 281.335938 12.789062 279.433594 12.851562 277.703125 12.890625 C 273.367188 12.988281 271.957031 13.148438 270.464844 13.722656 C 269.53125 14.082031 268.902344 14.472656 268.425781 14.984375 C 267.136719 16.378906 267.570312 18.304688 269.378906 19.214844 " fill-opacity="1" fill-rule="nonzero"/></g><path fill="#ea2027" d="M 63.824219 41.753906 C 63.109375 41.246094 61.496094 40.394531 60.726562 40.121094 C 60.136719 39.910156 58.289062 39.492188 57.121094 39.304688 C 56.160156 39.144531 54.128906 39.132812 52.898438 39.269531 C 51.554688 39.425781 49.824219 39.894531 48.410156 40.5 C 44.617188 42.113281 41.628906 45.4375 40.464844 49.324219 C 40.03125 50.765625 39.945312 51.277344 39.945312 52.417969 C 39.945312 54.933594 40.796875 57.410156 42.375 59.507812 C 43.085938 60.460938 43.832031 61.164062 45.152344 62.148438 C 46.761719 63.347656 48.230469 64.074219 49.914062 64.5 C 50.421875 64.628906 52.148438 64.898438 52.855469 64.960938 C 53.015625 64.976562 53.746094 64.992188 54.484375 64.996094 C 55.972656 65.011719 56.660156 64.925781 57.882812 64.582031 C 60.140625 63.949219 62.421875 62.855469 64.066406 61.625 C 64.726562 61.125 66.558594 59.257812 66.984375 58.648438 C 68.933594 55.863281 69.679688 52.664062 69.078125 49.722656 C 68.390625 46.355469 66.71875 43.828125 63.824219 41.753906 " fill-opacity="1" fill-rule="nonzero"/><path fill="#000000" d="M 202.789062 184.859375 C 201.878906 184.714844 195.703125 184.421875 193.507812 184.421875 C 191.75 184.421875 188.539062 184.300781 188.472656 184.230469 C 188.453125 184.214844 188.417969 181.296875 188.390625 177.75 C 188.339844 171.304688 188.300781 170.324219 188.066406 169.660156 C 187.902344 169.195312 187.621094 168.878906 187.191406 168.683594 C 186.386719 168.316406 185.546875 168.589844 185.132812 169.355469 C 184.878906 169.816406 184.800781 170.324219 184.710938 172.132812 C 184.664062 172.949219 184.597656 174.15625 184.558594 174.808594 C 184.519531 175.464844 184.460938 177.609375 184.421875 179.578125 C 184.386719 181.546875 184.332031 183.390625 184.308594 183.671875 L 184.257812 184.1875 L 181.757812 184.226562 C 180.378906 184.25 178.664062 184.316406 177.949219 184.375 C 177.234375 184.4375 176.0625 184.519531 175.347656 184.5625 C 172.695312 184.722656 170.503906 185.035156 169.777344 185.359375 C 169.082031 185.660156 168.660156 186.253906 168.660156 186.917969 C 168.660156 187.605469 169.085938 188.199219 169.8125 188.53125 C 170.183594 188.703125 170.328125 188.71875 171.910156 188.78125 C 173.113281 188.832031 174.140625 188.828125 175.421875 188.765625 C 177.472656 188.667969 181.636719 188.550781 183.167969 188.546875 L 184.1875 188.542969 L 184.226562 191.125 C 184.25 192.546875 184.316406 194.292969 184.375 195.011719 C 184.433594 195.726562 184.519531 196.898438 184.566406 197.613281 C 184.730469 200.304688 185.035156 202.457031 185.355469 203.183594 C 185.539062 203.59375 185.921875 204.007812 186.265625 204.164062 L 186.265625 204.167969 C 187.113281 204.550781 188.074219 204.117188 188.53125 203.144531 C 188.703125 202.773438 188.71875 202.644531 188.78125 201.015625 C 188.832031 199.796875 188.828125 198.765625 188.769531 197.578125 C 188.699219 196.105469 188.597656 192.90625 188.53125 189.542969 C 188.519531 188.996094 188.535156 188.527344 188.566406 188.496094 C 188.597656 188.464844 191.554688 188.417969 195.144531 188.386719 C 201.660156 188.339844 202.652344 188.300781 203.308594 188.066406 C 203.777344 187.90625 204.089844 187.621094 204.289062 187.1875 C 204.789062 186.101562 204.128906 185.078125 202.789062 184.859375 " fill-opacity="1" fill-rule="nonzero"/><g clip-path="url(#1070cbe471)"><path fill="#000000" d="M 104.484375 355.011719 C 103.179688 354.597656 102.535156 354.539062 100.179688 354.636719 C 94.335938 354.882812 93.144531 354.945312 91.855469 355.054688 C 90.671875 355.15625 89.171875 355.179688 82.175781 355.191406 C 77.625 355.199219 72.644531 355.242188 71.113281 355.289062 C 66.144531 355.4375 63.824219 355.515625 60.953125 355.632812 C 59.167969 355.707031 56.382812 355.75 53.363281 355.753906 C 47.570312 355.761719 45.097656 355.664062 38.972656 355.1875 C 34.898438 354.871094 35.113281 354.890625 32.824219 354.644531 C 31.753906 354.53125 30.269531 354.386719 29.535156 354.324219 C 26.382812 354.054688 24.492188 353.652344 23.101562 352.949219 C 22.328125 352.554688 21.992188 352.121094 21.535156 350.902344 C 21.199219 350.007812 20.425781 344.832031 19.988281 340.558594 C 19.875 339.421875 19.699219 337.695312 19.597656 336.722656 C 19.367188 334.503906 19.238281 332.53125 19.054688 328.625 C 18.757812 322.316406 18.746094 321.476562 18.722656 297.832031 C 18.699219 271.78125 18.660156 269.613281 18.25 267.996094 C 17.730469 265.953125 15.585938 265.460938 14.460938 267.128906 C 13.875 267.992188 13.609375 269.363281 13.304688 273.039062 C 12.902344 277.972656 12.816406 279.941406 12.613281 288.726562 C 12.574219 290.496094 12.507812 293.082031 12.46875 294.472656 C 12.238281 302.847656 12.160156 308.328125 12.207031 313.484375 C 12.3125 325.90625 12.425781 328.957031 13.230469 340.371094 C 13.40625 342.835938 13.933594 347.617188 14.285156 349.914062 C 14.636719 352.222656 15.019531 353.417969 15.921875 355.023438 C 17.011719 356.980469 18.105469 358.066406 19.933594 359.019531 C 22.125 360.167969 23.945312 360.625 29.605469 361.472656 C 36.265625 362.464844 40.082031 362.847656 44.648438 362.964844 C 46.21875 363.007812 48.316406 363.066406 49.3125 363.097656 C 50.304688 363.128906 51.21875 363.160156 51.335938 363.167969 C 51.828125 363.1875 61.507812 363.03125 63.917969 362.960938 C 70.621094 362.761719 75.683594 362.597656 76.210938 362.566406 C 76.527344 362.542969 78.511719 362.476562 80.621094 362.417969 C 82.730469 362.363281 84.714844 362.296875 85.03125 362.273438 C 85.351562 362.253906 86.457031 362.203125 87.492188 362.164062 C 88.527344 362.125 90.332031 362.023438 91.507812 361.945312 C 92.675781 361.863281 95.003906 361.769531 96.675781 361.730469 C 101.113281 361.625 102.511719 361.5 103.871094 361.0625 C 105.449219 360.558594 106.46875 359.847656 106.925781 358.917969 C 107.132812 358.496094 107.160156 358.378906 107.160156 357.828125 C 107.160156 357.300781 107.128906 357.15625 106.953125 356.796875 C 106.546875 355.960938 105.8125 355.433594 104.484375 355.011719 " fill-opacity="1" fill-rule="nonzero"/></g><g clip-path="url(#c55813d5ca)"><path fill="#000000" d="M 362.703125 306.617188 C 362.488281 299.730469 362.449219 298.511719 362.414062 297.941406 C 362.390625 297.625 362.328125 295.6875 362.269531 293.640625 C 362.210938 291.59375 362.128906 289.1875 362.085938 288.292969 C 361.914062 284.441406 361.859375 283.332031 361.757812 281.929688 C 361.628906 279.992188 361.585938 278.984375 361.503906 275.679688 C 361.398438 271.503906 361.214844 270.375 360.382812 268.664062 C 359.84375 267.5625 359.171875 266.945312 358.257812 266.710938 C 357.375 266.484375 356.5 266.769531 355.804688 267.5 C 355.328125 268.015625 354.980469 268.742188 354.695312 269.855469 C 354.410156 270.976562 354.375 271.9375 354.515625 274.992188 C 354.582031 276.324219 354.652344 277.914062 354.675781 278.535156 C 354.699219 279.148438 354.785156 280.582031 354.867188 281.710938 C 355 283.59375 355.019531 284.511719 355.027344 292.195312 C 355.039062 297.082031 355.078125 301.753906 355.132812 303.328125 C 355.296875 308.3125 355.441406 312.382812 355.515625 314.242188 C 355.617188 316.800781 355.621094 324.355469 355.515625 326.710938 C 355.398438 329.421875 355.300781 331.175781 355.179688 332.78125 C 354.871094 336.832031 354.6875 338.984375 354.496094 340.84375 C 354.375 341.972656 354.214844 343.636719 354.132812 344.527344 C 353.902344 347.058594 353.667969 348.335938 353.183594 349.710938 C 352.878906 350.570312 352.59375 351.125 352.289062 351.425781 C 352.007812 351.707031 351.234375 352.101562 350.515625 352.328125 C 349.589844 352.625 344.234375 353.40625 340.574219 353.78125 C 339.421875 353.898438 337.695312 354.074219 336.742188 354.175781 C 333.867188 354.472656 331.332031 354.621094 323.796875 354.949219 C 322.398438 355.011719 317.261719 355.042969 307.132812 355.054688 C 284.992188 355.078125 272.421875 355.136719 270.722656 355.21875 C 268.527344 355.335938 267.746094 355.460938 267.0625 355.808594 C 265.851562 356.425781 265.558594 357.898438 266.453125 358.890625 C 267.289062 359.824219 268.589844 360.136719 273.035156 360.496094 C 277.195312 360.835938 280.101562 360.980469 284.824219 361.078125 C 286.734375 361.121094 289.988281 361.199219 292.054688 361.261719 C 294.121094 361.320312 297.71875 361.402344 300.042969 361.441406 C 302.371094 361.484375 304.355469 361.535156 304.457031 361.546875 C 304.804688 361.601562 320.222656 361.519531 323.292969 361.445312 C 333.441406 361.21875 346.335938 360.207031 351.09375 359.265625 C 353.46875 358.792969 355.882812 357.546875 357.324219 356.042969 C 358.675781 354.625 359.675781 352.535156 360.34375 349.730469 C 361.050781 346.777344 362.234375 338.175781 362.628906 333.105469 C 362.996094 328.457031 363.023438 317.160156 362.703125 306.617188 " fill-opacity="1" fill-rule="nonzero"/></g><path fill="#000000" d="M 126.03125 42.707031 C 126.71875 42.011719 126.917969 41.859375 127.492188 41.570312 C 129.160156 40.738281 130.292969 40.851562 132.050781 42.023438 C 132.832031 42.546875 133.332031 42.75 133.835938 42.742188 C 134.507812 42.734375 135.101562 42.355469 135.378906 41.753906 C 135.636719 41.191406 135.589844 40.503906 135.253906 39.867188 C 134.65625 38.746094 132.898438 37.527344 131.273438 37.109375 C 130.515625 36.914062 128.886719 36.835938 128.113281 36.953125 C 125.445312 37.375 122.640625 39.441406 120.863281 42.304688 C 120.371094 43.097656 119.539062 44.777344 119.128906 45.808594 C 118.558594 47.242188 118.21875 48.496094 117.855469 50.503906 C 117.710938 51.300781 117.660156 51.867188 117.628906 53.054688 C 117.582031 54.804688 117.65625 55.714844 117.976562 57.3125 C 118.71875 61.046875 120.25 63.628906 122.707031 65.296875 C 123.714844 65.980469 125.042969 66.507812 126.269531 66.707031 C 127.496094 66.910156 129.066406 66.730469 130.277344 66.246094 C 131.882812 65.609375 132.949219 64.914062 134.179688 63.710938 C 134.949219 62.953125 135.273438 62.40625 135.390625 61.675781 C 135.664062 59.96875 134.175781 58.480469 132.507812 58.789062 C 131.890625 58.902344 131.332031 59.207031 130.703125 59.773438 C 130.179688 60.242188 129.550781 60.699219 129.105469 60.925781 C 128.476562 61.25 127.363281 61.351562 126.6875 61.148438 C 125.039062 60.652344 123.304688 57.996094 122.8125 55.222656 C 122.40625 52.898438 122.421875 50.726562 122.859375 48.746094 C 123.421875 46.195312 124.394531 44.34375 126.03125 42.707031 " fill-opacity="1" fill-rule="nonzero"/><path fill="#000000" d="M 115.554688 62.085938 C 114.617188 61.355469 113.675781 61.179688 111.472656 61.324219 C 109.914062 61.421875 107.632812 61.578125 106.054688 61.695312 C 105.1875 61.765625 104.859375 61.765625 104.800781 61.707031 C 104.726562 61.628906 104.699219 60.855469 104.5625 55.578125 L 104.558594 55.214844 L 106.292969 55.242188 C 110.28125 55.300781 111.789062 54.878906 112.453125 53.527344 C 112.738281 52.953125 112.742188 52.148438 112.464844 51.554688 C 112.09375 50.765625 111.453125 50.3125 110.363281 50.066406 C 109.9375 49.96875 109.457031 49.949219 107.882812 49.953125 C 106.808594 49.957031 105.628906 49.988281 105.265625 50.023438 C 104.902344 50.058594 104.566406 50.074219 104.523438 50.0625 C 104.480469 50.042969 104.445312 49.8125 104.445312 49.480469 C 104.445312 49 104.347656 46.972656 104.1875 44.136719 C 104.152344 43.523438 104.160156 43.257812 104.222656 43.222656 C 104.265625 43.195312 105.417969 43.109375 106.777344 43.03125 C 111.71875 42.753906 114.019531 42.570312 114.570312 42.414062 C 115.105469 42.261719 115.496094 42.027344 115.847656 41.644531 C 116.261719 41.195312 116.40625 40.773438 116.363281 40.144531 C 116.316406 39.523438 116.070312 39.082031 115.554688 38.691406 C 114.914062 38.207031 114.699219 38.167969 112.511719 38.136719 C 109.851562 38.09375 103.265625 38.253906 102.550781 38.375 C 101.179688 38.609375 100.359375 39.351562 100.058594 40.628906 C 99.964844 41.050781 99.9375 42.214844 99.878906 48.601562 C 99.796875 57.953125 99.851562 60.671875 100.148438 62.550781 C 100.289062 63.445312 100.417969 63.820312 100.757812 64.347656 C 101.574219 65.613281 102.636719 66.183594 104.523438 66.375 C 105.394531 66.460938 106.453125 66.464844 107.492188 66.382812 C 107.984375 66.347656 109.105469 66.28125 109.976562 66.242188 C 113.832031 66.058594 114.675781 65.871094 115.648438 64.96875 C 116.367188 64.304688 116.605469 63.636719 116.34375 63.015625 C 116.195312 62.660156 116.007812 62.433594 115.554688 62.085938 " fill-opacity="1" fill-rule="nonzero"/></svg>